<svg id="Capa_1" enable-background="new 0 0 512 512" height="512" viewBox="0 0 512 512" width="512" xmlns="http://www.w3.org/2000/svg"><g><path d="m512 256c0 42.98-10.59 83.48-29.31 119.04-3.47 6.6-4.672-7.008-8.682-.768-45.55 70.8-132.406 114.339-222.836 114.339-31.33 0-53.984-2.279-81.734-12.579-5.72-2.13-13.898 15.588-19.408 13.068-31.05-14.13-58.77-34.28-81.68-58.96-6.21-6.69 2.993-28.189-2.477-35.519-18.47-24.72-32.59-52.89-41.2-83.37-3.58-12.69-21.273-11.291-22.863-24.701-1.2-10.02-1.81-20.21-1.81-30.55 0-53.25 16.26-102.7 44.09-143.66 3.34-4.93 6.85-9.73 10.51-14.4 9.95-12.64 21.05-24.33 33.16-34.89 9.89-8.64 20.45-16.52 31.59-23.56 39.54-25.01 86.4-39.49 136.65-39.49 141.38 0 256 114.62 256 256z" fill="#cbe2ff"/><g><path d="m395.616 169.738c11.965-4.955 21.492-15.285 24.839-28.748.094-.38.186-.76.275-1.14 5.233-22.361-8.305-44.83-30.527-50.627-102.026-26.613-204.551-51.141-307.576-73.583-22.439-4.888-44.68 9.021-50.133 31.33-.093.38-.183.76-.271 1.141-3.108 13.52.712 27.043 9.139 36.877" fill="#d56b3d"/><path d="m417.15 154.81c-.09.38-.18.76-.27 1.14-3.35 13.46-12.88 23.79-24.84 28.74-9.21 3.82-15.89 11.97-17.48 21.81-12.29 76.23-30.24 151.1-53.85 224.62-9.05 28.17-37.28 45.55-66.5 40.9-62.9-10.01-124.85-23.97-185.86-41.88-6.21-6.69-12.07-13.71-17.54-21.04-18.47-24.72-32.59-52.89-41.2-83.37-3.58-12.69-6.21-25.77-7.8-39.18 11.03-53.77 24.92-106.85 41.69-159.25 1.58-4.94 1.73-10.09.59-14.96-1.06-4.5-3.2-8.76-6.31-12.4-8.42-9.83-12.24-23.35-9.13-36.87.08-.38.17-.76.27-1.14 5.45-22.31 27.69-36.22 50.13-31.33 13.44 2.93 26.88 5.89 40.3 8.89 89.47 19.99 178.56 41.55 267.28 64.69 22.22 5.8 35.75 28.26 30.52 50.63z" fill="#e7a52e"/><path d="m386.45 170.7c-.05.03-.11.05-.17.08-14.24 5.89-24.18 18.34-26.59 33.32-.27 1.65-.54 3.31-.82 4.96-6.25 38.02-14.01 75.96-23.18 113.53l-.11.44c-8.53 34.88-18.28 69.44-29.22 103.48-6.83 21.25-27.76 34.14-49.78 30.63-37.39-5.95-74.96-13.43-111.67-22.21-31.45-7.52-63.04-16.19-94.1-25.83-18.47-24.72-32.59-52.89-41.2-83.37 4.63-25.72 9.94-51.37 15.91-76.88l.11-.44c8.82-37.66 19.07-74.99 30.7-111.73.5-1.6 1.01-3.2 1.52-4.79 3.65-11.43 2.4-23.58-3.25-33.95-1.48-2.74-3.28-5.36-5.38-7.8-.04-.05-.08-.1-.12-.15-7.95-9.4-4.47-24.05 6.88-28.82 5-2.11 10.68-2.73 16.43-1.48 5.11 1.11 10.23 2.23 15.35 3.36 46.15 10.16 92.67 20.84 138.51 31.8 50.92 12.19 102.43 25.06 153.11 38.28 5.69 1.48 10.48 4.61 13.98 8.75 7.96 9.39 4.44 24.03-6.91 28.82z" fill="#ffd064"/><g fill="#e7a52e"><g><circle cx="299.858" cy="139.482" r="9.667"/><circle cx="327.316" cy="149.802" r="9.667"/><circle cx="305.288" cy="166.898" r="9.667"/></g><g><circle cx="69.945" cy="180.978" r="9.667"/><circle cx="75.543" cy="152.183" r="9.667"/><circle cx="96.072" cy="171.053" r="9.667"/></g></g></g><g><path d="m467.556 257.558c8.799-9.502 13.137-22.868 10.551-36.498-.073-.384-.149-.768-.227-1.151-4.591-22.502-26.28-37.256-48.891-33.235-103.811 18.462-207.204 39.026-310.179 61.695-22.428 4.937-36.82 26.869-32.452 49.415.074.384.151.767.231 1.15 2.826 13.582 11.949 24.271 23.714 29.682" fill="#d56b3d"/><path d="m482.69 375.04c-3.47 6.6-7.22 13.03-11.23 19.27-45.55 70.8-125.03 117.69-215.46 117.69-31.33 0-61.36-5.63-89.11-15.93-5.72-2.13-11.35-4.45-16.86-6.97-8.36-40.65-15.06-81.63-20.1-122.94-1.21-9.9-7.57-18.29-16.63-22.46-11.76-5.41-20.88-16.1-23.71-29.68-.08-.39-.16-.77-.23-1.15-4.37-22.55 10.02-44.48 32.45-49.42 102.97-22.67 206.37-43.23 310.18-61.69 22.61-4.02 44.3 10.73 48.89 33.23.08.39.15.77.23 1.15 2.58 13.63-1.75 27-10.55 36.5-6.78 7.32-9.44 17.51-6.77 27.12 6.95 24.97 13.25 50.06 18.9 75.28z" fill="#e7a52e"/><path d="m471.46 394.31c-45.55 70.8-125.03 117.69-215.46 117.69-31.33 0-61.36-5.63-89.11-15.93-.84-3.98-1.68-7.97-2.49-11.97l-.09-.45c-7.73-37.89-14.01-76.09-18.8-114.32-.21-1.67-.42-3.33-.62-4.99-1.84-15.06-11.29-27.89-25.29-34.33-.06-.02-.12-.05-.18-.08-11.14-5.22-14.11-19.98-5.79-29.07 3.66-3.99 8.56-6.94 14.31-8.2 51.14-11.26 103.11-22.14 154.47-32.36 51.35-10.21 103.54-20.04 155.1-29.21 5.78-1.03 11.44-.19 16.35 2.1 11.16 5.2 14.07 19.98 5.77 29.07-.04.05-.08.1-.13.14-10.47 11.31-14.29 26.77-10.22 41.39.45 1.61.89 3.23 1.33 4.85 7.77 28.28 14.73 56.88 20.85 85.67z" fill="#ffd064"/><g fill="#e7a52e"><g><circle cx="367.916" cy="270.091" r="9.667"/><circle cx="397.174" cy="267.991" r="9.667"/><circle cx="384.308" cy="292.729" r="9.667"/></g><g><circle cx="176.387" cy="403.875" r="9.667"/><circle cx="169.438" cy="375.377" r="9.667"/><circle cx="195.975" cy="383.939" r="9.667"/></g></g></g></g></svg>