<svg id="farfalle" enable-background="new 0 0 300 300" height="512" viewBox="0 0 300 300" width="512" xmlns="http://www.w3.org/2000/svg"><g><circle cx="136.445" cy="127.835" fill="#e6ebce" r="86"/><g fill="#4c241d"><path d="m128.676 58.431c-1.023 0-2.047-.391-2.828-1.172l-12-12c-1.562-1.562-1.562-4.094 0-5.656s4.094-1.562 5.656 0l12 12c1.562 1.562 1.562 4.094 0 5.656-.781.781-1.805 1.172-2.828 1.172z"/><path d="m116.676 58.431c-1.023 0-2.047-.391-2.828-1.172-1.562-1.562-1.562-4.094 0-5.656l12-12c1.562-1.562 4.094-1.562 5.656 0s1.562 4.094 0 5.656l-12 12c-.781.781-1.805 1.172-2.828 1.172z"/><path d="m177.09 52.708c0 2.362-1.915 4.276-4.276 4.276-2.362 0-4.276-1.915-4.276-4.276 0-2.362 1.914-4.277 4.276-4.277 2.361 0 4.276 1.915 4.276 4.277z"/><path d="m82.598 76.708c-7.719 0-14-6.281-14-14s6.281-14 14-14 14 6.281 14 14-6.282 14-14 14zm0-20c-3.309 0-6 2.691-6 6s2.691 6 6 6 6-2.691 6-6-2.692-6-6-6z"/><path d="m228.621 237.569c-2.211 0-4-1.791-4-4v-8c0-2.209 1.789-4 4-4s4 1.791 4 4v8c0 2.209-1.789 4-4 4z"/><path d="m228.621 261.569c-2.211 0-4-1.791-4-4v-8c0-2.209 1.789-4 4-4s4 1.791 4 4v8c0 2.209-1.789 4-4 4z"/><path d="m220.621 245.569h-8c-2.211 0-4-1.791-4-4s1.789-4 4-4h8c2.211 0 4 1.791 4 4s-1.789 4-4 4z"/><path d="m244.621 245.569h-8c-2.211 0-4-1.791-4-4s1.789-4 4-4h8c2.211 0 4 1.791 4 4s-1.789 4-4 4z"/></g><g><path d="m192.268 139.771c7.337-2.87 18.122-.818 24.081 4.884 21.214 20.3 51.826 7.685 54.126 4.595 3.719-4.996-2.788-8.083-1.995-12.946.66-4.049 5.308-6.612 3.768-11.147-1.633-4.81-6.136-5.836-3.604-11.806 1.114-2.626 2.409-6.987-3.11-10.866-4.788-3.365 2.784-11.298-2.604-13.811-6.459-3.013-5.217-7.045-5.166-10.181.114-6.998-8.003-5.056-9.727-10.769-1.276-4.229.464-8.15-4.854-10.171-4.39-1.669-7.706-1.735-8.786-7.169-1.117-5.62-4.873-6.689-10.02-5.304-8.823 2.373-28.44 12.335-33.07 46-.812 5.904-7.359 11.448-12.78 13.568-4.841 1.894-13.992 2.491-18.594-1.295-26.243-21.587-47.413-15.594-55.504-11.351-4.72 2.475-6.754 5.809-3.761 10.695 2.894 4.724.503 7.023-1.59 11.227-2.535 5.094 1.404 6.793 3.336 10.765 2.61 5.366-4.671 9.448.162 14.511 2.166 2.269 5.814 4.388 3.114 10.984-2.252 5.502 8.692 6.191 7.458 11.912-1.422 6.594 2.489 8.919 5.089 10.092 5.911 2.667 3.3 6.476 5.364 11.117 1.945 4.375 7.099 3.105 10.331 5.631 3.882 3.034 1.197 9.717 7.319 10.863 3.787.709 34.833-10.796 36.641-40.102.509-8.231 7.944-17.41 14.376-19.926z" fill="#ffec95"/><path d="m141.527 203.815c-.375 0-.715-.027-1.012-.084-6.078-1.139-7.266-6.084-7.906-8.74-.371-1.541-.633-2.506-1.141-2.902-.621-.488-1.766-.777-2.977-1.084-2.621-.664-6.586-1.668-8.547-6.074-.973-2.195-1.172-4.16-1.332-5.738-.242-2.371-.262-2.564-2.02-3.357-7.91-3.568-8.363-9.898-7.355-14.582-.18-.334-1.531-1.258-2.34-1.811-2.363-1.617-7.281-4.982-4.91-10.773 1.316-3.217.613-3.891-1.273-5.691-.359-.342-.707-.678-1.031-1.014-4.402-4.613-2.582-9.244-1.496-12.01.812-2.059.992-2.77.629-3.516-.391-.803-.969-1.564-1.582-2.369-1.848-2.428-4.641-6.096-1.738-11.926.383-.766.773-1.473 1.141-2.143 1.566-2.838 1.809-3.273.621-5.213-1.871-3.057-2.434-6.016-1.664-8.797.824-3 3.172-5.533 6.977-7.529 6.523-3.43 30.129-12.691 59.906 11.803 2.945 2.428 10.27 2.352 14.594.66 4.516-1.768 9.723-6.363 10.277-10.389 5.25-38.191 28.875-47.404 35.992-49.318 4.152-1.111 7.586-.85 10.234.795 2.453 1.523 4.047 4.078 4.746 7.594.445 2.23.918 2.387 3.992 3.408.727.24 1.492.496 2.293.801 6.09 2.312 6.527 6.904 6.816 9.941.098 1.006.188 1.957.445 2.812.242.793.855 1.193 2.848 2.156 2.676 1.293 7.152 3.457 7.051 9.832-.008.467-.035.949-.066 1.445-.164 2.604-.227 3.578 2.922 5.047 5.668 2.645 4.34 8.453 3.703 11.246-.219.953-.582 2.549-.438 3.031 3.867 2.639 7.828 7.6 4.441 15.586-.754 1.775-.637 1.932.793 3.838.953 1.268 2.141 2.846 2.914 5.121 1.551 4.564-.68 7.992-2.156 10.262-.68 1.045-1.324 2.031-1.449 2.814-.105.635.355 1.521 1.129 2.906 1.332 2.387 3.812 6.826.121 11.785-2.305 3.102-12.48 7.201-23.391 8.121-10.051.848-24.559-.588-36.707-12.215-4.75-4.545-13.832-6.393-19.855-4.051-5.023 1.967-11.426 9.742-11.84 16.449-1.035 16.777-10.715 27.674-18.652 33.861-7.969 6.212-17.312 10.012-21.707 10.012zm-32.019-52.398c.438.414 1.301 1.006 1.91 1.424 2.547 1.744 6.812 4.662 5.641 10.1-.789 3.66.672 4.631 2.824 5.602 5.961 2.689 6.398 6.994 6.688 9.842.125 1.219.23 2.271.688 3.297.32.719.828.969 3.199 1.568 1.777.451 3.984 1.01 5.938 2.535 2.746 2.146 3.469 5.146 3.996 7.338.613 2.562.727 2.584 1.598 2.746 3.934-.145 30.348-11.055 31.914-36.416.625-10.139 9.414-20.473 16.91-23.406 8.891-3.479 21.328-.959 28.301 5.721 18.355 17.561 45.16 7.656 48.383 4.832.297-.447.367-.539-.922-2.842-1.098-1.967-2.602-4.662-2.043-8.098.398-2.445 1.645-4.355 2.645-5.891 1.332-2.049 1.535-2.578 1.285-3.322-.363-1.066-1-1.91-1.734-2.891-1.719-2.287-4.316-5.746-1.766-11.766.922-2.174 1.34-3.879-1.727-6.031-4.551-3.199-3.398-8.236-2.711-11.246.168-.723.398-1.742.441-2.342-7.809-3.811-7.449-9.561-7.25-12.67.023-.369.047-.727.051-1.072.02-1.098.02-1.266-2.535-2.502-2.281-1.104-5.73-2.77-7.02-7.047-.488-1.613-.633-3.139-.75-4.363-.25-2.602-.297-2.691-1.699-3.225-.688-.26-1.344-.479-1.969-.686-3.551-1.178-7.969-2.645-9.316-9.441-.141-.707-.477-1.953-1.125-2.357-.312-.191-1.309-.57-3.934.137-5.914 1.59-25.566 9.367-30.148 42.682-1.027 7.473-8.465 14.082-15.285 16.748-5.695 2.232-16.469 3.104-22.594-1.93-25.957-21.359-45.684-13.746-51.102-10.898-2.402 1.258-2.887 2.217-2.984 2.572-.203.736.398 1.877.773 2.492 3.621 5.908 1.371 9.984-.438 13.258-.316.576-.652 1.184-.98 1.842-.668 1.338-.641 1.438.941 3.516.746.979 1.672 2.197 2.41 3.717 1.953 4.016.551 7.58-.379 9.939-1.039 2.641-.922 2.764-.16 3.559.238.25.5.496.766.75 2.257 2.155 6.441 6.147 3.269 14.225z" fill="#4c241d"/></g><g><path d="m144.621 129.445s-2.428-8.874 38.006-6.284 39.823-3.848 39.823-3.848" fill="#ffded5"/><path d="m144.617 133.446c-1.758 0-3.367-1.17-3.855-2.947-.184-.668-.621-3.047 1.43-5.559 4.367-5.359 17.699-7.244 40.691-5.771 27.52 1.768 34.547-.838 35.961-1.588.586-1.221 1.781-2.111 3.227-2.25 2.25-.203 4.152 1.406 4.359 3.604.137 1.406-.445 2.893-1.59 4.074-1.555 1.598-6.27 6.465-42.465 4.145-26.434-1.691-32.633 1.766-33.77 2.648-.145 1.615-1.273 3.047-2.93 3.5-.351.097-.706.144-1.058.144zm73.848-13.769v.002c0-.002 0-.002 0-.002zm0-.008v.002c0-.002 0-.002 0-.002z" fill="#4c241d"/></g><g><path d="m215.558 101.696s-4.238-8.166-32.182 21.172-31.863 24.195-31.863 24.195" fill="#ffded5"/><path d="m152.871 151.419c-.234 0-.434-.01-.605-.02-1.645-.09-3.078-.787-3.934-1.91-1.34-1.756-1.004-4.268.754-5.605 1.152-.885 2.633-1.035 3.898-.541 1.547-.404 8.469-3.256 27.492-23.232 15.914-16.703 26.98-24.338 33.812-23.373 3.207.457 4.5 2.5 4.82 3.117 1.016 1.959.254 4.375-1.707 5.393-1.531.787-3.328.506-4.531-.586-1.426.123-8.348 1.805-26.602 20.967-23.081 24.233-30.624 25.79-33.397 25.79zm59.144-47.869v.002c0-.002 0-.002 0-.002zm-.007-.012c0 .004.004.006.004.008 0-.002-.004-.004-.004-.008z" fill="#4c241d"/></g><g><path d="m112.874 208.505c7.878 0 17.174 5.84 20.647 13.321 12.361 26.633 45.464 26.038 48.733 23.997 5.283-3.298.348-8.543 2.858-12.783 2.09-3.53 7.352-4.224 7.57-9.008.231-5.074-3.588-7.671.945-12.308 1.994-2.04 4.789-5.629 1.062-11.252-3.233-4.878 6.708-9.507 2.606-13.81-4.918-5.159-2.292-8.461-1.102-11.363 2.656-6.475-5.611-7.624-5.136-13.572.352-4.403 3.401-7.42-.815-11.24-3.48-3.153-6.545-4.423-5.571-9.877 1.007-5.641-2.101-8.004-7.399-8.59-9.081-1.004-30.979 1.127-47.555 30.791-2.907 5.202-11.023 7.98-16.845 7.98-5.198 0-13.938-2.778-16.845-7.98-16.576-29.664-38.474-31.796-47.555-30.791-5.297.586-8.406 2.949-7.399 8.59.974 5.454-2.09 6.724-5.571 9.877-4.217 3.82-1.167 6.837-.815 11.24.476 5.948-7.792 7.097-5.136 13.572 1.19 2.902 3.816 6.204-1.102 11.363-4.102 4.303 5.839 8.932 2.606 13.81-3.726 5.623-.931 9.213 1.062 11.252 4.533 4.637.714 7.233.945 12.308.218 4.783 5.48 5.477 7.57 9.008 2.51 4.24-2.425 9.485 2.858 12.783 3.268 2.04 36.372 2.636 48.733-23.997 3.476-7.481 13.745-13.321 20.651-13.321z" fill="#ffec95"/><path d="m175.797 250.688c-4.668 0-10.496-.744-16.188-2.436-9.648-2.871-22.641-9.494-29.719-24.744-2.77-5.965-10.562-11.004-17.016-11.004-5.395 0-14.191 4.908-17.02 11.004-7.078 15.256-20.074 21.877-29.73 24.746-10.5 3.123-21.473 3.008-24.75.961-5.242-3.271-4.551-8.312-4.176-11.02.215-1.572.324-2.564-.004-3.119-.406-.682-1.363-1.367-2.379-2.092-2.199-1.574-5.527-3.953-5.746-8.77-.109-2.4.422-4.303.848-5.832.637-2.295.691-2.482-.656-3.863-6.062-6.209-4.184-12.268-1.535-16.258-.047-.377-.969-1.73-1.52-2.539-1.613-2.367-4.965-7.291-.648-11.82 2.395-2.516 1.984-3.398.887-5.762-.211-.451-.414-.895-.594-1.326-2.418-5.896.965-9.547 2.984-11.727 1.504-1.621 1.93-2.217 1.863-3.041-.07-.893-.332-1.811-.609-2.783-.836-2.934-2.098-7.367 2.727-11.74.637-.576 1.258-1.094 1.848-1.584 2.492-2.07 2.875-2.389 2.473-4.625-.629-3.529-.074-6.49 1.652-8.801 1.863-2.494 4.977-3.998 9.242-4.471 7.355-.814 32.684-.842 51.488 32.816 1.867 3.34 8.715 5.932 13.355 5.932 4.848 0 11.371-2.383 13.352-5.932 18.805-33.656 44.137-33.627 51.488-32.816 4.266.473 7.379 1.977 9.242 4.471 1.727 2.311 2.281 5.271 1.652 8.799-.398 2.238-.016 2.557 2.477 4.629.59.488 1.207 1.006 1.844 1.58 4.828 4.373 3.562 8.809 2.727 11.742-.277.973-.539 1.891-.609 2.781-.066.826.359 1.422 1.863 3.043 2.023 2.18 5.406 5.828 2.984 11.729-.176.432-.379.871-.59 1.32-1.102 2.363-1.512 3.248.887 5.766 4.316 4.529.961 9.455-.648 11.822-.551.809-1.473 2.162-1.512 2.666 2.637 3.865 4.52 9.928-1.547 16.131-1.344 1.377-1.293 1.564-.656 3.857.43 1.531.957 3.436.848 5.836-.215 4.814-3.543 7.195-5.746 8.77-1.012.725-1.973 1.41-2.375 2.092-.328.557-.223 1.551-.004 3.123.371 2.705 1.062 7.744-4.18 11.016-1.504.94-4.625 1.473-8.574 1.473zm-144.239-61.488c.254.545.844 1.41 1.262 2.021 1.738 2.553 4.645 6.826 1.57 11.463-2.066 3.119-1.059 4.557.594 6.246 4.566 4.676 3.406 8.842 2.641 11.6-.328 1.18-.613 2.199-.562 3.32.035.785.418 1.203 2.41 2.627 1.488 1.066 3.344 2.393 4.605 4.525 1.773 2.996 1.352 6.053 1.047 8.283-.359 2.613-.266 2.674.488 3.143 3.73 1.311 32.289.764 42.984-22.287 4.277-9.215 16.227-15.637 24.277-15.637 9.539 0 20.203 6.869 24.273 15.637 10.695 23.049 39.281 23.584 43.297 22.127.441-.307.539-.367.18-2.98-.309-2.232-.727-5.291 1.047-8.287 1.262-2.131 3.117-3.457 4.605-4.521 1.988-1.424 2.371-1.842 2.406-2.627.051-1.127-.23-2.146-.559-3.326-.77-2.756-1.93-6.922 2.641-11.596 1.648-1.689 2.656-3.125.59-6.246-3.074-4.639-.164-8.91 1.574-11.463.418-.611 1.004-1.475 1.262-2.02-5.887-6.395-3.453-11.619-2.137-14.443.156-.334.309-.658.441-.979.414-1.014.48-1.17-1.453-3.252-1.723-1.859-4.328-4.668-3.973-9.121.137-1.682.555-3.152.891-4.336.719-2.512.707-2.613-.402-3.619-.547-.494-1.082-.938-1.59-1.359-2.875-2.391-6.453-5.365-5.234-12.186.125-.711.27-1.992-.188-2.604-.219-.293-1.02-1.01-3.715-1.307-6.055-.678-27.215-.594-43.621 28.766-3.68 6.584-13.016 10.029-20.336 10.029-6.117 0-16.469-3.111-20.34-10.027-16.402-29.359-37.531-29.449-43.621-28.768-2.695.297-3.496 1.014-3.715 1.307-.457.611-.312 1.893-.188 2.604 1.223 6.818-2.359 9.795-5.234 12.184-.508.422-1.043.865-1.586 1.361-1.113 1.006-1.121 1.107-.406 3.621.336 1.182.754 2.654.891 4.336.355 4.449-2.25 7.26-3.973 9.119-1.93 2.082-1.863 2.238-1.449 3.254.133.324.289.65.445.984 1.318 2.831 3.756 8.071-2.139 14.434z" fill="#4c241d"/></g><g><path d="m72.264 181.531s.972-9.149 37.683 7.993 38.488 10.925 38.488 10.925" fill="#ffded5"/><path d="m145.176 205.571c-4.82 0-14.852-2.117-36.922-12.422-23.973-11.195-31.035-10.242-32.41-9.836-.727 1.453-2.281 2.361-4.004 2.195-2.199-.234-3.789-2.205-3.555-4.402.074-.689.531-3.062 3.352-4.656 6.023-3.404 19.109-.305 40 9.449 25.031 11.686 32.484 11.803 34.07 11.621.996-.924 2.445-1.312 3.824-.918 2.125.605 3.355 2.818 2.75 4.943-.391 1.359-1.469 2.531-2.969 3.215-.664.303-1.777.811-4.136.811zm-.586-6.228c0 .002 0 .006-.004.008.004-.002.004-.006.004-.008zm.004-.01c-.004.002-.004.004-.004.006 0-.002 0-.004.004-.006zm0-.008v.004c0-.002 0-.002 0-.004zm-68.356-17.371v.01c0-.004 0-.008 0-.01z" fill="#4c241d"/></g><g><path d="m148.435 181.531s-.972-9.149-37.683 7.993-38.488 10.925-38.488 10.925" fill="#ffded5"/><path d="m75.519 205.571c-2.359 0-3.469-.508-4.137-.811-1.496-.684-2.578-1.854-2.969-3.213-.605-2.125.625-4.338 2.75-4.945 1.387-.395 2.832-.006 3.824.918 1.613.207 9.082.049 34.07-11.621 20.898-9.758 33.984-12.844 40-9.449 2.82 1.594 3.281 3.969 3.352 4.658.234 2.197-1.359 4.168-3.555 4.4-1.723.16-3.277-.744-4.004-2.195-1.379-.408-8.426-1.365-32.41 9.836-22.065 10.303-32.096 12.422-36.921 12.422zm.586-6.232c0 .004 0 .008.004.01-.004-.002-.004-.006-.004-.01zm-.004-.008c0 .002.004.004.004.006 0-.002-.004-.004-.004-.006zm0-.006v.002c0-.002 0-.002 0-.002zm68.356-17.373v.01c0-.004 0-.008 0-.01z" fill="#4c241d"/></g></g></svg>