<?xml version="1.0" encoding="UTF-8"?>
<svg viewBox="0 0 50 48">
    <g id="chick-fil-a-1" fill="currentColor" fill-rule="nonzero">
        <path d="M47.424,16.751 C47.575,16.638 47.722,16.524 47.865,16.409 C50.1467872,23.1900236 49.3039891,30.6337872 45.5638755,36.7329989 C41.8237619,42.8322106 35.5714706,46.9588046 28.493,47.9999997 C32.731,43.953 35.9,36.985 36.296,29.801 C36.702,22.444 33.484,17.694 27.402,17.047 C18.202,16.069 8.649,25.223 4.569,36.962 C-0.100911702,29.5263225 -0.362958153,20.1407709 3.88479074,12.4561107 C8.13253963,4.77145036 16.219489,0.000863681563 25,-3.10154938e-07 C26.3716884,-3.10154938e-07 27.7409257,0.115863117 29.093,0.347 C27.3107535,1.56119793 26.1169244,3.46487126 25.8,5.598 C24.897,9.772 26.164,14.155 28.778,14.72 C31.392,15.285 34.364,11.82 35.266,7.646 C35.7631541,5.78662922 35.5914992,3.81171275 34.781,2.066 C37.1569635,3.12161361 39.3468295,4.55405949 41.266,6.308 C40.8978562,6.53606423 40.5395352,6.77961574 40.192,7.038 C35.833,10.283 33.349,15.507 35.346,18.188 C37.343,20.869 43.065,19.996 47.424,16.751 L47.424,16.751 Z M16.307,17.83 C17.318,16.644 16.417,14.213 14.586,12.653 C12.755,11.093 10.8,11.09 9.789,12.275 C8.778,13.46 9.095,15.386 10.926,16.947 C12.757,18.508 15.298,19.015 16.307,17.83 Z M22.175,15.027 C24.14,14.125 24.374,10.425 22.925,7.27 C21.476,4.115 18.983,2.895 17.018,3.797 C15.053,4.699 14.358,7.384 15.808,10.537 C17.258,13.69 20.209,15.929 22.175,15.027 Z M36.877,35.876 C42.297,32.122 44.948,33.149 44.9470003,31.768 C44.945,30.247 40.763,27.366 37.81,27.098 C37.8453333,27.918 37.839,28.767 37.791,29.645 C37.6713746,31.7446305 37.3655063,33.8294878 36.877,35.875 L36.877,35.876 Z M13.75,42.64 C13.6754301,43.6102739 13.7214478,44.5860503 13.887,45.545 C11.6530433,44.3827919 9.6141724,42.8790277 7.844,41.088 C10.725,30.282 18.974,19.778 26.908,20.55 C30.228,20.874 32.52,23.79 32.17,30.127 C31.766,37.463 26.469,48.169 20.868,47.86 C18.281,47.718 17.472,45.077 17.666,42.744 C18.089,37.687 20.663,36.296 20.832,34.248 C20.8483439,33.743843 20.6098585,33.2653126 20.1974832,32.9748166 C19.7851078,32.6843206 19.254221,32.6208703 18.785,32.806 C17.226,33.303 14.125,37.16 13.75,42.64 L13.75,42.64 Z M28.53,25.7529994 C26.92,25.805 25.183,28.656 25.876,30.224 C27.149,32.269 29.804,29.607 29.848,27.429 C29.859,26.914 29.825,25.752 28.53,25.7529994 L28.53,25.7529994 Z M44.267,44.488 L44.767,44.488 L45.268,45.691 L45.768,44.488 L46.269,44.488 L46.269,46.553 L45.769,46.553 L45.769,45.557 L45.433,46.362 L45.103,46.362 L44.768,45.557 L44.768,46.553 L44.267,46.553 L44.267,44.488 Z M42.383,44.488 L43.957,44.488 L43.957,44.953 L43.42,44.953 L43.42,46.553 L42.92,46.553 L42.92,44.953 L42.383,44.953 L42.383,44.488 Z" id="Shape"></path>
    </g>
</svg>